<?xml version="1.0" encoding="UTF-8"?>
<svg width="159px" height="153px" viewBox="0 0 159 153" version="1.1" xmlns="http://www.w3.org/2000/svg" xmlns:xlink="http://www.w3.org/1999/xlink">
    <title>TaylorMade Icon - White</title>
    <defs>
        <polygon id="path-1" points="0.0003 7.11708917e-05 158.117 7.11708917e-05 158.117 152.194 0.0003 152.194"></polygon>
    </defs>
    <g id="TaylorMade-Icon---White" stroke="none" stroke-width="1" fill="none" fill-rule="evenodd">
        <g id="Group-3">
            <mask id="mask-2" fill="white">
                <use xlink:href="#path-1"></use>
            </mask>
            <g id="Clip-2"></g>
            <path d="M140.4263,60.099 C139.2443,60.123 138.0733,60.243 136.8913,60.343 C121.7713,61.62 116.0223,71.904 107.7573,85.088 C101.3353,95.328 80.4673,132.077 71.4323,147.987 C82.0083,153.053 91.8813,153.341 102.6373,149.938 C110.0253,147.597 113.7983,145.691 117.9963,142.623 C119.3963,141.6 120.6103,140.532 121.5313,139.21 L121.8973,138.723 C122.0193,138.552 122.1463,138.411 122.2633,138.236 C135.8473,117.054 145.5893,84.707 150.1773,67.291 C150.7293,65.204 151.2553,63.015 151.7623,60.953 C147.6013,60.276 143.9693,60.025 140.4263,60.099 M62.2893,59.612 C60.6043,59.662 58.8773,59.72 56.9263,59.977 C30.9323,63.41 10.7223,70.094 0.0003,74.239 C0.4923,76.506 1.0193,77.911 1.0973,78.14 C1.1023,78.155 1.2183,78.627 1.2183,78.627 C5.6793,93.547 20.2943,110.784 44.6143,129.825 C45.5313,130.541 46.4183,131.229 47.2963,131.897 C61.6263,110.604 69.4673,94.469 74.9673,77.409 C79.2413,64.135 74.0903,59.259 62.2893,59.612 M87.7663,0.003 C54.2283,0.233 25.4093,13.946 8.5323,33.647 C69.8813,20.819 120.1863,25.524 157.6133,31.575 C157.7593,30.517 157.9883,29.493 158.1013,28.528 C158.1303,28.279 158.0913,28.044 158.1013,27.796 L158.1013,27.065 C158.3403,22.355 155.8383,17.869 151.6403,15.728 C129.7063,4.527 107.8893,-0.134 87.7663,0.003" id="Fill-1" fill="#FFFFFF" mask="url(#mask-2)"></path>
        </g>
    </g>
</svg>